<?xml version="1.0" encoding="iso-8859-1"?>
<!-- Generator: Adobe Illustrator 19.0.0, SVG Export Plug-In . SVG Version: 6.00 Build 0)  -->
<svg version="1.1" id="Capa_1" xmlns="http://www.w3.org/2000/svg" xmlns:xlink="http://www.w3.org/1999/xlink" x="0px" y="0px"
	 viewBox="0 0 512 512" style="enable-background:new 0 0 512 512;" xml:space="preserve">
<g>
	<g>
		<g>
			<polygon points="408,480 56,480 56,160 184,160 184,80 152,80 152,128 78.624,128 174.624,32 408,32 408,64 440,64 440,0 
				161.376,0 24,137.376 24,512 440,512 440,352 408,352 			"/>
			<rect x="296" y="176" width="64" height="32"/>
			<rect x="376" y="96" width="32" height="64"/>
			<rect x="376" y="224" width="32" height="64"/>
			<rect x="424" y="176" width="64" height="32"/>
			<rect x="232" y="352" width="32" height="32"/>
			<rect x="264" y="320" width="32" height="32"/>
			<rect x="264" y="384" width="32" height="32"/>
			<rect x="296" y="352" width="32" height="32"/>
		</g>
	</g>
</g>
<g>
</g>
<g>
</g>
<g>
</g>
<g>
</g>
<g>
</g>
<g>
</g>
<g>
</g>
<g>
</g>
<g>
</g>
<g>
</g>
<g>
</g>
<g>
</g>
<g>
</g>
<g>
</g>
<g>
</g>
</svg>
