<svg id="svg" version="1.1" width="400" height="400" xmlns="http://www.w3.org/2000/svg" xmlns:xlink="http://www.w3.org/1999/xlink" style="display: block;"><g id="svgg"><path id="path0" d="M133.949 133.460 C 133.333 134.201,132.949 141.735,133.381 144.616 C 133.711 146.810,135.404 147.746,137.143 146.693 C 138.134 146.093,138.206 145.845,138.300 142.727 C 138.464 137.292,138.152 137.646,142.895 137.514 C 147.559 137.384,148.341 136.755,147.216 134.037 L 146.703 132.800 140.600 132.800 C 135.417 132.800,134.415 132.899,133.949 133.460 M254.100 133.398 C 252.040 135.738,253.874 137.543,258.456 137.684 L 262.200 137.800 262.304 141.000 C 262.479 146.348,264.609 148.728,267.125 146.384 C 268.143 145.435,268.457 135.842,267.536 133.819 L 267.072 132.800 260.836 132.815 C 255.965 132.827,254.491 132.955,254.100 133.398 M135.687 199.300 C 135.772 206.003,135.778 206.048,135.899 200.883 C 136.061 193.959,136.463 193.683,139.810 198.200 C 140.462 199.080,141.090 199.890,141.206 200.000 C 141.321 200.110,142.400 201.505,143.604 203.100 C 146.488 206.923,146.413 207.033,146.313 199.100 C 146.226 192.274,146.224 192.258,146.100 197.592 C 146.032 200.558,145.805 203.155,145.596 203.364 C 145.254 203.706,143.616 202.298,143.591 201.639 C 143.586 201.507,143.001 200.747,142.291 199.949 C 141.581 199.150,140.010 197.135,138.800 195.471 C 135.634 191.116,135.585 191.177,135.687 199.300 M263.241 194.467 C 263.218 195.273,262.975 196.016,262.700 196.117 C 262.300 196.263,262.300 196.406,262.700 196.830 C 263.025 197.174,263.200 198.641,263.200 201.018 C 263.200 205.124,263.684 206.033,265.831 205.960 C 266.860 205.925,266.893 205.889,266.109 205.660 C 263.561 204.916,263.357 204.017,264.007 196.400 C 264.035 196.070,263.883 195.170,263.670 194.400 L 263.282 193.000 263.241 194.467 M170.000 201.000 C 170.000 204.067,170.155 206.000,170.400 206.000 C 170.645 206.000,170.800 204.067,170.800 201.000 C 170.800 197.933,170.645 196.000,170.400 196.000 C 170.155 196.000,170.000 197.933,170.000 201.000 M176.000 201.000 C 176.000 204.067,176.155 206.000,176.400 206.000 C 176.636 206.000,176.800 204.591,176.800 202.574 C 176.800 200.689,176.986 198.799,177.214 198.374 C 177.500 197.840,177.500 197.600,177.214 197.600 C 176.986 197.600,176.800 197.240,176.800 196.800 C 176.800 196.360,176.620 196.000,176.400 196.000 C 176.155 196.000,176.000 197.933,176.000 201.000 M180.976 196.613 C 181.404 196.936,181.984 197.200,182.267 197.200 C 183.373 197.200,184.198 199.326,184.431 202.779 L 184.662 206.200 184.731 202.724 C 184.769 200.812,184.987 199.132,185.215 198.991 C 185.846 198.601,182.344 196.006,181.200 196.017 C 180.235 196.025,180.227 196.046,180.976 196.613 M188.573 196.356 C 188.694 196.551,189.281 196.834,189.878 196.984 C 191.628 197.423,192.177 198.636,192.423 202.600 L 192.647 206.200 192.723 202.071 C 192.803 197.770,192.687 197.410,190.918 196.463 C 189.899 195.918,188.256 195.843,188.573 196.356 M217.200 196.767 C 217.200 197.188,216.975 197.609,216.700 197.702 C 216.315 197.831,216.308 198.001,216.669 198.439 C 217.411 199.338,217.267 207.220,216.492 208.100 C 215.707 208.993,216.238 209.020,217.125 208.132 C 217.946 207.311,218.431 196.000,217.644 196.000 C 217.400 196.000,217.200 196.345,217.200 196.767 M239.179 197.127 C 239.357 197.747,239.683 198.602,239.905 199.027 C 240.126 199.452,240.508 200.295,240.753 200.900 C 240.999 201.505,241.401 202.495,241.647 203.100 C 241.892 203.705,242.252 204.513,242.447 204.895 C 243.036 206.053,242.881 206.848,241.693 208.774 C 241.633 208.870,240.823 209.072,239.893 209.224 L 238.200 209.500 240.137 209.550 C 241.762 209.592,242.109 209.471,242.284 208.800 C 242.399 208.360,242.652 208.000,242.847 208.000 C 243.041 208.000,243.200 207.751,243.200 207.446 C 243.200 207.141,243.469 206.376,243.798 205.746 C 244.666 204.080,244.603 203.293,243.668 204.139 C 242.858 204.872,242.400 204.653,242.400 203.533 C 242.400 203.130,242.220 202.800,242.000 202.800 C 241.780 202.800,241.600 202.438,241.600 201.995 C 241.600 201.552,241.435 200.877,241.234 200.495 C 240.502 199.107,239.600 196.869,239.600 196.440 C 239.600 196.198,239.433 196.000,239.228 196.000 C 239.010 196.000,238.990 196.467,239.179 197.127 M246.765 197.048 C 246.510 197.682,246.167 198.560,246.004 199.000 C 245.841 199.440,245.485 200.271,245.214 200.847 C 244.943 201.424,244.808 202.234,244.914 202.647 C 245.080 203.294,245.114 203.276,245.154 202.524 C 245.179 202.042,245.380 201.536,245.600 201.400 C 245.820 201.264,246.000 200.713,246.000 200.176 C 246.000 199.639,246.136 199.200,246.302 199.200 C 246.636 199.200,247.634 196.300,247.385 196.052 C 247.300 195.967,247.021 196.415,246.765 197.048 M157.600 196.514 C 157.600 196.627,158.230 197.350,159.000 198.120 C 160.995 200.115,160.350 204.722,158.060 204.832 C 157.597 204.854,157.559 204.927,157.932 205.076 C 159.854 205.843,161.794 200.318,160.287 198.370 C 159.747 197.672,157.600 196.189,157.600 196.514 M202.800 196.813 C 202.800 197.026,202.962 197.200,203.161 197.200 C 203.605 197.200,204.494 199.639,204.169 199.965 C 204.040 200.094,202.824 200.308,201.467 200.439 L 199.000 200.678 201.251 200.739 C 204.132 200.817,204.671 201.378,203.820 203.414 C 203.062 205.228,203.062 205.200,203.800 205.200 C 204.130 205.200,204.400 205.380,204.400 205.600 C 204.400 205.820,204.580 206.000,204.800 206.000 C 205.491 206.000,205.297 198.920,204.576 197.820 C 203.908 196.801,202.800 196.172,202.800 196.813 M152.106 197.392 C 150.270 199.479,150.313 202.770,152.201 204.658 C 153.218 205.675,153.636 205.204,152.655 204.146 C 150.911 202.265,151.000 199.161,152.844 197.562 C 153.414 197.068,153.525 196.805,153.161 196.815 C 152.853 196.824,152.378 197.083,152.106 197.392 M209.305 197.908 C 207.355 200.289,208.873 205.258,211.520 205.160 L 212.600 205.120 211.604 204.843 C 208.977 204.112,208.014 200.126,209.960 198.042 C 210.599 197.359,210.914 196.803,210.660 196.808 C 210.407 196.812,209.797 197.307,209.305 197.908 M223.100 197.357 C 222.715 197.649,222.405 198.228,222.411 198.644 C 222.419 199.259,222.547 199.197,223.095 198.313 C 223.466 197.715,224.046 197.151,224.385 197.059 C 224.912 196.917,224.914 196.888,224.400 196.859 C 224.070 196.841,223.485 197.065,223.100 197.357 M250.662 197.531 C 250.298 197.934,250.000 198.564,250.000 198.931 C 250.000 199.299,249.820 199.600,249.600 199.600 C 249.380 199.600,249.200 200.129,249.200 200.776 C 249.200 201.423,249.380 202.064,249.600 202.200 C 249.820 202.336,250.000 202.769,250.000 203.162 C 250.000 203.971,251.198 205.200,251.985 205.200 C 252.273 205.200,252.056 204.845,251.504 204.410 C 249.741 203.024,250.097 197.845,252.007 197.096 C 252.505 196.900,252.498 196.858,251.962 196.832 C 251.611 196.814,251.026 197.129,250.662 197.531 M256.393 197.096 C 257.557 197.553,258.086 198.430,257.913 199.615 C 257.796 200.411,257.910 200.800,258.259 200.800 C 258.630 200.800,258.710 200.426,258.535 199.500 C 258.244 197.957,257.325 196.788,256.438 196.832 C 255.902 196.858,255.895 196.900,256.393 197.096 M230.315 199.600 C 230.218 200.260,230.287 200.800,230.469 200.800 C 230.651 200.800,230.800 200.260,230.800 199.600 C 230.800 198.940,230.730 198.400,230.645 198.400 C 230.560 198.400,230.412 198.940,230.315 199.600 M221.613 200.762 C 221.600 202.580,223.086 205.207,224.120 205.194 C 224.439 205.190,224.459 205.089,224.181 204.894 C 223.274 204.258,221.996 202.050,222.393 201.804 C 222.967 201.450,222.899 200.683,222.213 199.776 C 221.667 199.055,221.625 199.126,221.613 200.762 M197.300 201.798 C 195.870 203.423,197.758 206.042,200.282 205.936 L 201.800 205.872 200.400 205.706 C 197.842 205.403,196.511 203.424,197.862 201.931 C 198.226 201.529,198.361 201.207,198.162 201.215 C 197.963 201.224,197.575 201.486,197.300 201.798 M154.905 205.887 C 155.514 205.979,156.414 205.977,156.905 205.882 C 157.397 205.787,156.900 205.711,155.800 205.714 C 154.700 205.717,154.297 205.795,154.905 205.887 M225.705 205.887 C 226.314 205.979,227.214 205.977,227.705 205.882 C 228.197 205.787,227.700 205.711,226.600 205.714 C 225.500 205.717,225.097 205.795,225.705 205.887 M253.300 205.887 C 253.905 205.978,254.895 205.978,255.500 205.887 C 256.105 205.795,255.610 205.720,254.400 205.720 C 253.190 205.720,252.695 205.795,253.300 205.887 M134.200 253.430 C 133.463 253.986,133.400 254.502,133.400 259.955 C 133.400 267.706,132.893 267.200,140.659 267.200 L 146.820 267.200 147.210 266.174 C 148.349 263.178,147.402 262.400,142.614 262.400 C 138.237 262.400,138.400 262.577,138.400 257.837 C 138.400 253.424,136.645 251.583,134.200 253.430 M263.995 253.313 C 262.887 254.206,262.400 256.007,262.400 259.219 L 262.400 262.400 258.700 262.413 C 254.459 262.427,253.600 262.825,253.600 264.773 C 253.600 267.038,254.083 267.200,260.827 267.200 C 268.438 267.200,267.970 267.659,267.987 260.170 C 268.002 253.469,266.661 251.165,263.995 253.313 " stroke="none" fill="#c6c6c6" fill-rule="evenodd"></path><path id="path1" d="M134.160 132.706 C 132.916 133.537,132.169 142.205,133.056 145.516 C 133.551 147.364,136.040 148.044,137.600 146.758 L 138.600 145.933 137.338 146.631 C 134.193 148.368,133.196 146.636,133.206 139.450 C 133.215 132.762,132.908 133.046,140.411 132.784 L 146.600 132.568 140.600 132.490 C 137.300 132.447,134.402 132.544,134.160 132.706 M257.700 132.697 C 259.405 132.772,262.195 132.772,263.900 132.697 C 265.605 132.622,264.210 132.561,260.800 132.561 C 257.390 132.561,255.995 132.622,257.700 132.697 M147.019 133.400 C 147.612 135.070,147.661 135.940,147.216 136.855 C 146.778 137.754,146.786 137.762,147.378 137.024 C 148.178 136.025,148.173 134.366,147.367 133.376 C 146.744 132.611,146.739 132.611,147.019 133.400 M267.442 133.400 C 268.326 135.424,268.096 145.480,267.145 146.366 C 266.202 147.244,264.619 147.477,264.200 146.800 C 264.064 146.580,263.749 146.400,263.500 146.400 C 263.251 146.400,263.396 146.664,263.824 146.987 C 264.977 147.860,266.314 147.723,267.418 146.618 C 268.678 145.358,268.928 134.890,267.733 133.400 L 267.092 132.600 267.442 133.400 M253.293 135.200 C 253.293 135.970,253.375 136.285,253.476 135.900 C 253.576 135.515,253.576 134.885,253.476 134.500 C 253.375 134.115,253.293 134.430,253.293 135.200 M138.589 138.501 C 138.465 138.997,138.425 140.842,138.501 142.601 L 138.639 145.800 138.720 142.108 C 138.812 137.843,138.531 138.086,143.600 137.881 C 146.372 137.768,146.304 137.753,142.708 137.679 C 138.972 137.603,138.806 137.636,138.589 138.501 M258.187 137.891 C 260.381 137.978,261.907 138.221,262.117 138.517 C 262.362 138.860,262.414 138.827,262.298 138.400 C 262.169 137.923,261.362 137.795,258.368 137.774 L 254.600 137.748 258.187 137.891 M169.822 191.964 C 169.324 192.770,170.047 193.603,170.866 193.165 C 171.493 192.829,171.556 192.629,171.177 192.172 C 170.632 191.515,170.146 191.440,169.822 191.964 M135.467 192.267 C 135.085 192.648,135.135 205.913,135.519 206.150 C 136.469 206.737,136.780 205.519,136.887 200.784 C 136.982 196.602,137.096 195.821,137.600 195.929 C 138.063 196.028,138.092 195.948,137.727 195.575 C 136.430 194.255,136.027 195.426,135.899 200.883 C 135.778 206.075,135.773 206.038,135.687 199.329 C 135.608 193.079,135.663 192.442,136.300 192.276 C 136.861 192.129,136.874 192.084,136.367 192.046 C 136.018 192.021,135.613 192.120,135.467 192.267 M145.818 192.433 C 145.703 192.745,145.562 195.340,145.505 198.200 L 145.400 203.400 141.267 198.100 C 138.994 195.185,137.048 192.800,136.944 192.800 C 136.840 192.800,136.990 193.121,137.277 193.514 C 139.325 196.312,141.568 199.184,142.498 200.200 C 143.102 200.860,143.597 201.507,143.598 201.639 C 143.603 202.285,145.252 203.708,145.596 203.364 C 145.805 203.155,146.032 200.558,146.100 197.592 C 146.224 192.258,146.226 192.274,146.313 199.100 C 146.413 207.033,146.489 206.922,143.600 203.100 C 142.394 201.505,141.226 200.007,141.004 199.771 C 140.782 199.535,140.150 198.681,139.600 197.874 C 139.050 197.066,138.443 196.404,138.251 196.403 C 138.059 196.401,138.079 196.625,138.295 196.900 C 138.511 197.175,140.265 199.433,142.192 201.917 C 146.633 207.642,146.575 207.674,146.710 199.397 C 146.810 193.267,146.474 190.647,145.818 192.433 M262.864 194.257 C 262.828 194.958,262.535 195.616,262.200 195.745 C 261.433 196.039,261.422 197.046,262.184 197.338 C 262.614 197.503,262.803 198.434,262.902 200.881 L 263.037 204.200 263.119 200.780 C 263.173 198.492,263.036 197.196,262.703 196.863 C 262.308 196.468,262.314 196.300,262.733 196.041 C 263.062 195.838,263.197 195.206,263.094 194.358 L 262.928 193.000 262.864 194.257 M263.869 194.600 C 263.959 195.260,264.015 196.070,263.994 196.400 C 263.473 204.520,263.718 205.600,266.075 205.600 C 266.474 205.600,266.930 205.613,267.090 205.630 C 267.250 205.647,267.432 205.505,267.495 205.315 C 267.558 205.126,267.034 204.927,266.331 204.874 C 264.205 204.711,263.957 204.243,264.085 200.638 L 264.200 197.400 265.700 197.276 C 267.370 197.138,267.884 196.000,266.276 196.000 C 265.118 196.000,264.110 195.242,263.881 194.200 C 263.785 193.760,263.779 193.940,263.869 194.600 M153.600 196.200 C 152.507 196.825,152.644 196.876,155.600 196.950 C 156.700 196.978,157.600 196.844,157.600 196.654 C 157.600 196.234,159.594 197.492,160.322 198.370 C 160.761 198.900,160.772 198.852,160.390 198.066 C 159.464 196.162,155.548 195.086,153.600 196.200 M170.300 195.865 C 170.933 196.120,171.018 205.825,170.390 206.137 C 170.165 206.249,170.210 206.294,170.490 206.237 C 171.404 206.053,171.425 195.591,170.512 195.632 C 170.093 195.650,170.006 195.746,170.300 195.865 M175.467 195.867 C 174.822 196.511,175.178 205.906,175.857 206.167 C 176.219 206.305,176.609 206.325,176.724 206.209 C 176.839 206.094,176.723 206.000,176.467 206.000 C 175.781 206.000,175.813 196.142,176.500 195.865 C 176.826 195.733,176.780 195.652,176.367 195.632 C 176.018 195.614,175.613 195.720,175.467 195.867 M179.049 196.173 C 178.395 196.462,177.660 197.246,177.349 197.987 C 176.602 199.762,176.648 199.821,177.764 198.524 C 178.439 197.739,178.589 197.313,178.264 197.104 C 178.009 196.940,178.700 196.916,179.800 197.050 C 181.677 197.281,181.751 197.257,181.000 196.661 C 180.214 196.037,180.218 196.025,181.209 196.013 C 181.765 196.006,182.904 196.566,183.749 197.262 C 185.245 198.495,185.307 198.509,186.402 197.862 C 187.019 197.498,188.126 197.189,188.862 197.175 C 190.170 197.150,190.178 197.140,189.200 196.729 C 188.579 196.468,188.396 196.236,188.717 196.115 C 189.479 195.831,191.051 196.308,191.791 197.048 C 192.147 197.404,192.540 197.594,192.664 197.469 C 193.047 197.086,190.262 195.603,189.156 195.601 C 188.582 195.601,187.449 196.050,186.638 196.600 C 185.828 197.150,185.063 197.600,184.940 197.600 C 184.817 197.600,184.181 197.150,183.527 196.600 C 182.232 195.510,180.848 195.379,179.049 196.173 M198.906 196.130 C 198.194 196.389,197.609 196.735,197.606 196.900 C 197.603 197.065,197.600 197.391,197.600 197.624 C 197.600 197.857,197.799 197.924,198.043 197.774 C 198.359 197.578,198.362 197.423,198.052 197.232 C 197.813 197.085,198.601 196.941,199.803 196.913 C 204.041 196.814,205.451 199.666,201.329 200.000 C 197.040 200.347,195.035 202.979,197.381 205.182 C 197.942 205.709,198.400 205.957,198.400 205.733 C 198.400 205.474,199.088 205.433,200.300 205.619 C 202.619 205.977,202.698 205.932,203.675 203.725 C 204.712 201.380,204.257 200.820,201.251 200.739 L 199.000 200.678 201.467 200.439 C 202.824 200.308,204.044 200.090,204.178 199.955 C 204.502 199.632,203.676 197.494,203.087 197.130 C 202.832 196.972,202.743 196.724,202.889 196.577 C 203.036 196.431,203.641 196.826,204.234 197.455 C 204.827 198.085,205.228 198.330,205.125 198.000 C 204.553 196.164,201.414 195.220,198.906 196.130 M210.966 196.169 C 207.809 197.543,206.946 201.442,209.229 204.015 L 210.458 205.400 209.429 203.962 C 208.274 202.349,208.038 199.511,208.957 198.300 C 209.770 197.229,210.179 197.468,209.446 198.586 C 208.172 200.531,209.435 204.449,211.414 204.690 C 211.951 204.756,212.012 204.704,211.607 204.529 C 208.854 203.334,208.592 198.749,211.200 197.400 C 212.273 196.845,215.689 196.720,215.369 197.247 C 215.286 197.382,215.575 197.815,216.009 198.209 C 216.444 198.602,216.814 199.211,216.832 199.562 C 216.853 199.996,216.929 200.035,217.069 199.687 C 217.183 199.404,217.034 198.880,216.738 198.522 C 216.316 198.011,216.308 197.834,216.700 197.702 C 216.975 197.609,217.197 197.233,217.194 196.867 C 217.189 196.353,217.111 196.321,216.852 196.729 C 216.583 197.153,216.245 197.094,215.158 196.431 C 213.590 195.475,212.688 195.419,210.966 196.169 M217.547 195.922 C 217.978 196.224,218.061 197.494,217.939 201.938 C 217.854 205.037,217.928 207.315,218.104 207.000 C 218.718 205.902,218.272 195.885,217.600 195.702 C 217.111 195.569,217.101 195.610,217.547 195.922 M224.100 196.389 C 222.536 197.099,221.623 197.984,223.000 197.455 C 223.752 197.167,223.747 197.572,222.987 198.576 C 222.418 199.329,222.400 199.329,222.400 198.596 C 222.400 198.049,222.279 197.961,221.963 198.277 C 221.646 198.594,221.722 199.014,222.234 199.796 C 222.773 200.618,222.840 201.044,222.514 201.566 C 222.185 202.092,222.260 202.480,222.834 203.226 C 223.949 204.677,223.728 205.192,222.588 203.800 C 222.047 203.140,221.603 202.811,221.602 203.069 C 221.595 204.621,223.826 205.801,226.630 205.730 C 230.056 205.644,229.921 205.674,229.200 205.159 C 228.714 204.812,228.766 204.767,229.470 204.920 C 230.087 205.054,230.279 204.951,230.131 204.565 C 229.957 204.110,229.732 204.118,228.779 204.611 C 228.112 204.956,226.782 205.164,225.584 205.112 C 224.455 205.063,223.722 204.959,223.955 204.882 C 224.202 204.799,224.030 204.267,223.543 203.608 C 222.269 201.885,222.792 201.600,227.224 201.600 L 231.200 201.600 231.200 200.174 C 231.200 196.595,227.726 194.743,224.100 196.389 M238.406 196.100 C 238.409 196.375,238.605 196.870,238.841 197.200 C 239.185 197.682,239.231 197.623,239.072 196.900 C 238.964 196.405,239.038 196.000,239.237 196.000 C 239.437 196.000,239.600 196.168,239.600 196.374 C 239.600 197.037,240.416 198.917,240.616 198.717 C 240.999 198.334,239.577 195.600,238.995 195.600 C 238.668 195.600,238.403 195.825,238.406 196.100 M246.900 195.865 C 246.625 195.976,246.400 196.356,246.400 196.710 C 246.400 197.244,246.507 197.222,247.033 196.576 C 247.656 195.811,247.661 195.811,247.381 196.600 C 247.225 197.040,247.009 197.805,246.902 198.300 C 246.795 198.795,246.565 199.200,246.391 199.200 C 246.217 199.200,246.160 198.795,246.265 198.300 C 246.412 197.605,246.366 197.537,246.064 198.000 C 245.849 198.330,245.770 199.110,245.889 199.733 L 246.106 200.866 246.689 199.533 C 247.010 198.800,247.436 197.887,247.636 197.505 C 248.384 196.077,248.076 195.390,246.900 195.865 M252.358 196.132 C 250.699 196.877,250.067 197.570,250.285 198.405 C 250.480 199.148,250.518 199.144,251.208 198.291 C 251.629 197.771,251.766 197.302,251.537 197.161 C 251.323 197.029,252.521 196.920,254.200 196.920 C 255.879 196.920,257.077 197.029,256.863 197.161 C 256.636 197.301,256.793 197.797,257.236 198.345 C 257.881 199.142,258.000 199.178,258.000 198.578 C 258.000 197.582,258.243 197.976,258.516 199.417 L 258.747 200.635 254.873 200.468 C 252.743 200.377,250.890 200.129,250.756 199.917 C 250.621 199.706,250.531 200.043,250.556 200.667 L 250.600 201.800 254.800 201.600 L 259.000 201.400 258.905 199.837 C 258.712 196.679,255.363 194.784,252.358 196.132 M229.004 197.129 C 228.903 197.230,229.130 197.835,229.507 198.473 C 230.435 200.045,229.835 200.386,226.124 200.394 C 222.838 200.401,222.342 200.016,223.543 198.392 C 224.131 197.597,224.234 197.209,223.890 197.089 C 223.620 196.995,224.702 196.924,226.294 196.932 C 227.885 196.940,229.105 197.028,229.004 197.129 M152.467 197.834 C 151.120 199.358,151.053 202.680,152.348 203.691 C 152.933 204.147,152.942 204.126,152.433 203.479 C 151.504 202.296,151.710 199.360,152.803 198.197 C 153.318 197.649,153.573 197.207,153.370 197.215 C 153.166 197.224,152.760 197.502,152.467 197.834 M158.984 198.556 C 160.269 200.523,160.267 201.774,158.980 203.462 C 158.418 204.198,158.131 204.800,158.340 204.800 C 160.234 204.800,160.846 200.092,159.184 198.306 L 157.968 197.000 158.984 198.556 M182.624 197.767 C 183.278 198.246,183.422 198.931,183.538 202.139 C 183.624 204.531,183.847 206.009,184.138 206.122 C 184.913 206.420,184.349 199.587,183.491 198.280 C 183.101 197.686,182.571 197.200,182.314 197.200 C 182.057 197.200,182.196 197.455,182.624 197.767 M191.038 198.040 C 191.631 198.693,191.844 199.694,192.000 202.540 C 192.272 207.515,192.992 207.277,193.030 202.200 L 193.061 198.200 192.808 202.200 L 192.555 206.200 192.464 202.600 C 192.377 199.146,191.696 197.200,190.574 197.200 C 190.410 197.200,190.619 197.578,191.038 198.040 M239.225 198.224 C 239.277 199.023,241.135 202.563,241.167 201.924 C 241.185 201.552,241.020 201.136,240.800 201.000 C 240.580 200.864,240.394 200.448,240.387 200.076 C 240.380 199.704,240.110 199.051,239.787 198.624 C 239.464 198.196,239.211 198.016,239.225 198.224 M230.800 199.600 C 230.800 200.260,230.651 200.800,230.469 200.800 C 230.287 200.800,230.218 200.260,230.315 199.600 C 230.412 198.940,230.560 198.400,230.645 198.400 C 230.730 198.400,230.800 198.940,230.800 199.600 M160.901 201.000 C 160.905 201.880,160.987 202.193,161.083 201.695 C 161.179 201.198,161.175 200.478,161.075 200.095 C 160.975 199.713,160.896 200.120,160.901 201.000 M221.301 201.000 C 221.305 201.880,221.387 202.193,221.483 201.695 C 221.579 201.198,221.575 200.478,221.475 200.095 C 221.375 199.713,221.296 200.120,221.301 201.000 M203.624 201.639 C 204.123 202.447,203.205 204.301,202.073 204.770 C 198.865 206.098,195.320 203.950,197.272 201.861 C 197.906 201.183,203.227 200.997,203.624 201.639 M241.510 202.200 C 241.379 202.860,241.449 203.670,241.664 204.000 C 241.966 204.463,242.012 204.395,241.865 203.700 C 241.760 203.205,241.838 202.800,242.037 202.800 C 242.237 202.800,242.400 203.130,242.400 203.533 C 242.400 204.653,242.858 204.872,243.668 204.139 C 244.224 203.635,244.400 203.606,244.400 204.018 C 244.400 204.357,244.538 204.418,244.769 204.180 C 244.972 203.971,245.039 203.290,244.916 202.667 L 244.694 201.534 244.097 202.767 C 243.332 204.348,243.134 204.317,242.374 202.498 L 241.748 201.000 241.510 202.200 M150.434 202.000 C 150.392 202.809,151.974 205.359,152.310 205.023 C 152.457 204.877,152.376 204.631,152.129 204.478 C 151.883 204.325,151.408 203.570,151.074 202.800 C 150.739 202.030,150.451 201.670,150.434 202.000 M197.680 202.080 C 197.002 202.758,197.084 203.807,197.865 204.451 C 198.469 204.949,198.486 204.916,198.051 204.100 C 197.703 203.447,197.689 202.981,198.000 202.400 C 198.487 201.490,198.378 201.382,197.680 202.080 M216.473 202.781 C 216.185 203.431,215.577 204.080,215.122 204.225 C 214.486 204.427,214.419 204.565,214.834 204.821 C 215.146 205.014,215.602 204.964,215.917 204.703 C 216.307 204.379,216.537 204.375,216.730 204.687 C 216.879 204.927,217.017 204.330,217.038 203.362 C 217.084 201.270,217.123 201.311,216.473 202.781 M249.200 202.570 C 249.200 204.317,251.315 205.677,254.012 205.663 C 257.462 205.645,257.485 205.642,256.834 205.230 C 256.523 205.033,255.696 204.965,254.996 205.078 C 253.441 205.330,251.300 204.309,250.805 203.079 C 250.546 202.437,250.444 202.381,250.425 202.871 C 250.411 203.240,250.874 203.915,251.454 204.371 C 252.120 204.895,252.290 205.200,251.916 205.200 C 251.156 205.200,250.000 203.928,250.000 203.092 C 250.000 202.737,249.820 202.336,249.600 202.200 C 249.380 202.064,249.200 202.231,249.200 202.570 M159.616 204.183 C 158.660 205.201,155.437 205.437,153.400 204.638 C 152.765 204.389,152.724 204.414,153.200 204.756 C 153.696 205.113,153.702 205.189,153.233 205.194 C 152.922 205.197,152.784 205.318,152.928 205.461 C 153.749 206.283,158.496 205.779,159.735 204.739 C 160.431 204.155,160.896 203.571,160.768 203.441 C 160.641 203.310,160.122 203.644,159.616 204.183 M211.600 205.182 L 210.600 205.485 211.700 205.786 C 213.133 206.178,215.213 205.706,214.379 205.179 C 213.711 204.756,213.006 204.757,211.600 205.182 M242.171 206.180 C 242.187 206.917,242.335 207.438,242.500 207.337 C 242.905 207.088,242.883 205.298,242.471 205.044 C 242.290 204.932,242.155 205.443,242.171 206.180 M243.700 205.893 C 242.988 207.411,243.084 208.033,243.813 206.633 C 244.148 205.991,244.372 205.322,244.311 205.146 C 244.250 204.970,243.975 205.306,243.700 205.893 M263.762 205.500 C 264.227 206.049,264.929 206.379,265.562 206.346 L 266.600 206.291 265.600 206.109 C 265.050 206.009,264.240 205.628,263.800 205.264 C 263.006 204.605,263.006 204.607,263.762 205.500 M199.300 206.276 C 199.685 206.376,200.315 206.376,200.700 206.276 C 201.085 206.175,200.770 206.093,200.000 206.093 C 199.230 206.093,198.915 206.175,199.300 206.276 M216.646 206.700 C 216.511 207.085,216.286 207.650,216.148 207.956 C 215.989 208.306,216.063 208.408,216.348 208.232 C 216.597 208.078,216.800 208.141,216.800 208.372 C 216.800 208.602,216.485 208.764,216.100 208.732 C 214.429 208.592,213.739 208.858,214.800 209.234 C 215.595 209.515,215.470 209.550,214.192 209.404 C 213.308 209.303,212.048 209.365,211.392 209.543 L 210.200 209.866 211.694 210.150 C 213.542 210.501,216.034 209.868,216.998 208.802 C 217.398 208.361,217.541 208.000,217.317 208.000 C 217.094 208.000,216.997 207.550,217.102 207.000 C 217.321 205.856,217.015 205.654,216.646 206.700 M209.028 208.354 C 208.610 209.031,209.476 209.564,210.532 209.282 L 211.632 208.987 210.418 208.529 C 209.750 208.277,209.125 208.198,209.028 208.354 M241.373 208.378 C 241.168 208.579,240.370 208.817,239.600 208.907 L 238.200 209.072 239.600 209.130 C 240.977 209.187,242.383 208.650,241.962 208.228 C 241.843 208.110,241.579 208.177,241.373 208.378 M239.100 210.088 C 239.747 210.400,240.253 210.400,240.900 210.088 C 241.690 209.707,241.580 209.654,240.000 209.654 C 238.420 209.654,238.310 209.707,239.100 210.088 M137.500 253.671 C 138.279 254.519,138.400 255.089,138.400 257.893 C 138.400 262.569,138.242 262.400,142.614 262.400 C 147.402 262.400,148.349 263.178,147.210 266.174 L 146.820 267.200 140.659 267.200 C 132.894 267.200,133.400 267.703,133.400 259.975 C 133.400 256.730,133.268 254.283,133.106 254.537 C 132.617 255.307,132.753 265.059,133.269 266.191 C 133.892 267.559,134.431 267.649,141.200 267.515 L 147.000 267.400 147.679 266.040 C 149.112 263.169,147.660 262.073,142.200 261.901 L 139.000 261.800 138.899 258.600 C 138.769 254.460,138.578 253.721,137.495 253.157 L 136.600 252.691 137.500 253.671 M267.130 253.726 C 267.939 254.586,267.999 255.044,267.987 260.226 C 267.970 267.630,268.474 267.150,260.564 267.300 L 254.200 267.422 260.654 267.511 L 267.108 267.600 267.754 266.614 C 269.315 264.232,268.449 252.800,266.708 252.800 C 266.462 252.800,266.652 253.217,267.130 253.726 M262.000 261.600 C 262.000 261.835,260.558 262.005,258.500 262.013 C 256.058 262.022,254.765 262.203,254.224 262.613 C 253.796 262.936,253.651 263.200,253.900 263.200 C 254.149 263.200,254.464 263.020,254.600 262.800 C 254.737 262.579,256.537 262.400,258.624 262.400 C 261.714 262.400,262.400 262.291,262.400 261.800 C 262.400 261.470,262.310 261.200,262.200 261.200 C 262.090 261.200,262.000 261.380,262.000 261.600 M253.293 264.800 C 253.293 265.570,253.375 265.885,253.476 265.500 C 253.576 265.115,253.576 264.485,253.476 264.100 C 253.375 263.715,253.293 264.030,253.293 264.800 " stroke="none" fill="#d0d0d0" fill-rule="evenodd"></path><path id="path2" d="M140.733 132.380 C 147.477 132.622,148.000 132.830,148.000 135.276 C 148.000 137.322,146.814 138.000,143.233 138.000 C 138.651 138.000,138.786 137.878,138.881 141.943 L 138.963 145.400 139.097 142.139 L 139.231 138.878 142.784 138.739 C 146.984 138.575,148.400 137.711,148.400 135.312 C 148.400 132.443,147.291 131.989,140.518 132.080 L 134.600 132.159 140.733 132.380 M254.500 132.265 C 254.225 132.376,254.000 132.668,254.000 132.913 C 254.000 133.224,254.146 133.214,254.480 132.880 C 255.455 131.905,266.621 132.242,267.584 133.275 C 268.945 134.736,268.815 145.222,267.418 146.618 C 266.878 147.158,266.595 147.600,266.789 147.600 C 269.018 147.600,269.900 135.064,267.818 132.982 C 266.870 132.034,256.461 131.474,254.500 132.265 M133.010 133.580 C 132.360 134.837,132.092 145.361,132.700 145.739 C 132.865 145.841,132.940 143.583,132.867 140.720 C 132.724 135.100,132.862 133.995,133.829 133.028 C 134.175 132.683,134.269 132.400,134.039 132.400 C 133.809 132.400,133.346 132.931,133.010 133.580 M253.200 136.806 C 253.200 137.883,255.814 138.797,258.900 138.799 L 262.000 138.800 262.000 142.146 C 262.000 145.498,262.803 147.600,264.084 147.600 C 264.318 147.600,264.035 147.125,263.455 146.545 C 262.496 145.587,262.400 145.208,262.400 142.378 C 262.400 137.866,262.524 138.000,258.357 138.000 C 255.333 138.000,254.680 137.880,254.000 137.200 C 253.560 136.760,253.200 136.583,253.200 136.806 M137.637 146.700 C 137.107 147.195,136.837 147.594,137.037 147.587 C 137.627 147.567,138.896 146.479,138.742 146.125 C 138.664 145.946,138.166 146.205,137.637 146.700 M169.452 191.808 C 168.882 193.295,170.295 194.494,171.251 193.335 C 171.746 192.734,171.716 192.714,170.940 193.127 C 170.235 193.503,170.034 193.467,169.827 192.926 C 169.446 191.933,170.231 191.362,171.048 192.037 C 171.639 192.525,171.704 192.520,171.534 192.000 C 171.257 191.155,169.756 191.016,169.452 191.808 M135.067 192.267 C 134.672 192.661,134.754 205.709,135.155 206.341 C 136.361 208.244,137.200 206.103,137.200 201.124 L 137.200 196.276 138.062 197.038 L 138.924 197.800 138.218 196.703 C 137.076 194.928,136.800 195.759,136.800 200.981 C 136.800 205.051,136.692 205.956,136.185 206.150 C 135.237 206.514,135.153 205.815,135.281 198.661 C 135.346 194.997,135.385 191.999,135.367 191.999 C 135.348 192.000,135.213 192.120,135.067 192.267 M136.800 192.142 C 136.800 192.288,138.735 194.880,141.100 197.903 L 145.400 203.400 145.494 201.600 C 145.763 196.449,145.766 192.095,145.500 192.261 C 145.335 192.363,145.200 194.597,145.200 197.224 C 145.200 202.988,145.353 202.967,141.411 197.744 C 137.864 193.042,136.800 191.750,136.800 192.142 M146.719 198.836 C 146.802 203.623,146.697 205.842,146.370 206.237 C 146.095 206.567,146.067 206.800,146.302 206.800 C 147.424 206.800,147.617 205.550,147.510 198.980 C 147.444 194.960,147.240 192.212,147.000 192.132 C 146.741 192.046,146.642 194.404,146.719 198.836 M262.667 193.067 C 262.520 193.213,262.400 193.759,262.400 194.279 C 262.400 194.799,262.130 195.329,261.800 195.455 C 261.470 195.582,261.200 196.032,261.200 196.455 C 261.200 196.879,261.470 197.329,261.800 197.455 C 262.264 197.633,262.400 198.408,262.400 200.863 C 262.400 204.051,263.109 206.400,264.072 206.400 C 264.321 206.400,264.181 206.021,263.762 205.559 C 263.160 204.894,262.970 203.963,262.859 201.130 C 262.757 198.528,262.565 197.485,262.159 197.329 C 261.418 197.045,261.444 196.035,262.200 195.745 C 262.542 195.613,262.800 195.017,262.800 194.357 C 262.800 193.595,263.005 193.200,263.400 193.200 C 263.771 193.200,264.000 193.576,264.000 194.186 C 264.000 195.239,264.996 196.000,266.374 196.000 C 267.903 196.000,267.299 197.144,265.700 197.276 L 264.200 197.400 264.082 200.538 C 263.945 204.202,264.283 204.827,266.349 204.736 L 267.800 204.672 266.403 204.503 C 264.581 204.284,264.413 203.947,264.406 200.500 L 264.400 197.600 265.751 197.600 C 267.151 197.600,268.261 196.747,267.811 196.018 C 267.669 195.788,267.128 195.600,266.609 195.600 C 264.974 195.600,264.400 195.174,264.400 193.957 C 264.400 192.839,263.405 192.328,262.667 193.067 M169.867 195.467 C 169.458 195.875,169.550 206.322,169.964 206.578 C 171.319 207.415,171.601 206.377,171.518 200.857 L 171.436 195.400 171.218 200.768 C 170.907 208.427,170.000 208.650,170.000 201.067 C 170.000 197.121,170.135 195.612,170.500 195.465 C 170.779 195.352,170.809 195.249,170.567 195.232 C 170.328 195.214,170.013 195.320,169.867 195.467 M246.700 195.632 C 246.315 195.856,246.000 196.303,246.000 196.625 C 246.000 196.947,245.831 197.523,245.624 197.905 C 245.417 198.287,244.935 199.474,244.554 200.542 C 244.172 201.610,243.600 202.743,243.282 203.061 C 242.965 203.378,242.830 203.763,242.982 203.916 C 243.404 204.337,246.393 197.974,246.399 196.644 C 246.399 196.448,246.715 196.049,247.100 195.757 C 247.929 195.128,247.693 195.054,246.700 195.632 M152.289 196.454 C 148.609 199.199,150.276 207.328,154.302 206.275 C 154.952 206.105,154.951 206.090,154.286 206.046 C 149.910 205.762,149.049 198.568,153.133 196.410 C 153.940 195.984,154.330 195.633,154.000 195.630 C 153.670 195.628,152.900 195.998,152.289 196.454 M158.315 196.396 C 162.476 198.285,161.848 205.257,157.439 206.126 L 156.600 206.291 157.433 206.346 C 157.892 206.375,158.972 205.791,159.833 205.046 C 162.967 202.337,161.245 195.569,157.433 195.609 C 156.881 195.615,157.178 195.880,158.315 196.396 M176.846 196.276 C 176.790 197.343,177.425 197.833,177.754 196.977 C 177.884 196.637,177.827 196.460,177.626 196.584 C 177.425 196.708,177.178 196.493,177.077 196.105 C 176.933 195.555,176.883 195.592,176.846 196.276 M183.527 196.600 C 184.181 197.150,184.817 197.600,184.940 197.600 C 185.063 197.600,185.828 197.150,186.638 196.600 C 187.449 196.050,187.931 195.600,187.710 195.600 C 187.489 195.600,186.834 195.973,186.255 196.428 L 185.202 197.256 184.039 196.428 C 182.424 195.278,182.089 195.390,183.527 196.600 M191.478 196.382 C 193.002 197.312,193.296 198.477,193.122 202.903 C 192.951 207.241,192.244 207.013,192.000 202.540 C 191.766 198.266,191.150 197.200,188.912 197.200 C 186.013 197.200,184.800 199.098,184.800 203.636 C 184.800 208.047,183.672 207.032,183.497 202.463 L 183.365 199.000 183.282 202.451 C 183.220 205.062,183.342 206.020,183.782 206.385 C 184.797 207.228,185.200 206.435,185.200 203.595 C 185.200 199.306,186.227 197.636,188.877 197.613 C 191.079 197.594,191.600 198.595,191.600 202.846 C 191.600 206.360,191.957 207.169,193.174 206.416 C 195.063 205.248,192.972 195.596,190.830 195.601 C 190.477 195.602,190.762 195.945,191.478 196.382 M198.200 196.000 C 197.908 196.473,198.299 196.473,199.400 196.000 C 200.171 195.669,200.169 195.655,199.324 195.628 C 198.842 195.613,198.336 195.780,198.200 196.000 M203.641 196.515 L 205.000 197.430 205.113 201.915 C 205.229 206.526,205.141 206.832,203.992 205.792 C 203.392 205.250,203.196 205.250,202.160 205.790 C 201.433 206.169,201.252 206.396,201.676 206.398 C 202.048 206.399,202.463 206.222,202.597 206.004 C 202.747 205.761,203.212 205.852,203.803 206.239 C 205.354 207.255,205.600 206.679,205.600 202.031 C 205.600 197.501,204.798 195.600,202.886 195.600 C 202.554 195.600,202.893 196.012,203.641 196.515 M209.231 196.831 C 208.554 197.508,208.000 198.252,208.000 198.485 C 208.000 198.717,208.390 198.412,208.866 197.807 C 209.342 197.201,210.287 196.464,210.966 196.169 C 211.990 195.723,212.052 195.629,211.331 195.616 C 210.853 195.607,209.908 196.154,209.231 196.831 M215.110 196.401 C 216.793 197.428,217.196 197.427,215.891 196.400 C 215.331 195.960,214.632 195.601,214.337 195.601 C 214.042 195.602,214.389 195.962,215.110 196.401 M218.323 200.861 C 218.457 206.573,218.167 207.896,216.492 209.214 C 215.942 209.646,215.665 210.000,215.876 210.000 C 216.354 210.000,217.750 208.492,218.350 207.326 C 218.852 206.352,218.989 195.600,218.500 195.599 C 218.335 195.599,218.255 197.967,218.323 200.861 M222.613 197.013 C 221.836 197.791,221.204 198.736,221.209 199.113 C 221.214 199.506,221.504 199.220,221.885 198.446 C 222.317 197.569,223.123 196.834,224.176 196.355 C 225.380 195.808,225.571 195.615,224.913 195.609 C 224.423 195.604,223.395 196.232,222.613 197.013 M228.880 196.417 C 229.693 196.847,230.543 197.514,230.767 197.899 C 230.992 198.285,231.181 198.391,231.188 198.136 C 231.205 197.479,228.873 195.596,228.069 195.618 C 227.700 195.627,228.063 195.986,228.880 196.417 M238.017 195.847 C 237.995 196.428,239.671 200.463,239.857 200.276 C 239.935 200.198,239.557 199.069,239.017 197.767 C 238.476 196.465,238.026 195.601,238.017 195.847 M240.330 197.400 C 242.118 201.938,242.507 202.826,242.650 202.683 C 242.843 202.490,240.387 196.327,239.907 195.800 C 239.707 195.580,239.897 196.300,240.330 197.400 M250.974 196.463 C 247.334 199.049,248.615 206.474,252.686 206.384 C 253.131 206.375,252.935 206.166,252.166 205.831 C 248.148 204.082,248.129 197.975,252.137 196.219 C 252.832 195.914,253.127 195.651,252.794 195.633 C 252.461 195.615,251.642 195.988,250.974 196.463 M256.200 196.067 C 256.640 196.310,257.405 196.876,257.900 197.324 C 258.395 197.773,258.800 197.940,258.800 197.697 C 258.800 197.148,256.670 195.596,255.938 195.612 C 255.635 195.619,255.750 195.818,256.200 196.067 M197.081 196.653 C 196.515 197.218,197.629 198.474,198.244 197.964 C 199.239 197.138,202.374 197.277,203.032 198.176 C 203.344 198.604,203.600 198.743,203.600 198.486 C 203.600 196.971,199.658 196.397,198.100 197.685 C 197.629 198.074,197.400 197.664,197.553 196.700 C 197.610 196.334,197.419 196.314,197.081 196.653 M154.400 197.064 C 153.377 197.469,152.000 198.908,152.001 199.570 C 152.002 199.926,152.338 199.651,152.772 198.938 C 153.963 196.985,156.570 196.714,158.600 198.332 C 159.352 198.932,159.351 198.917,158.576 198.072 C 157.744 197.166,155.507 196.626,154.400 197.064 M211.115 197.401 C 209.798 198.140,208.964 200.524,209.512 201.985 C 209.820 202.808,209.874 202.662,209.840 201.097 C 209.763 197.516,213.672 195.896,215.843 198.609 C 216.367 199.264,216.797 199.606,216.798 199.370 C 216.806 197.670,212.991 196.349,211.115 197.401 M224.986 197.162 C 224.538 197.354,223.912 197.846,223.593 198.255 C 223.045 198.960,223.056 198.966,223.807 198.361 C 224.988 197.408,225.961 197.156,227.406 197.427 C 228.641 197.659,229.883 199.184,229.307 199.760 C 228.893 200.174,223.277 200.021,223.063 199.590 C 222.952 199.365,222.906 199.410,222.962 199.690 C 223.172 200.743,230.010 200.550,229.991 199.492 C 229.960 197.750,226.919 196.334,224.986 197.162 M252.543 197.178 C 251.440 197.647,250.399 199.132,250.673 199.846 C 250.835 200.267,251.714 200.382,254.343 200.325 L 257.800 200.251 254.495 200.025 C 250.763 199.771,250.757 199.768,251.715 198.400 C 252.796 196.857,255.641 196.964,257.026 198.600 C 257.655 199.342,257.890 199.482,257.643 198.967 C 256.817 197.244,254.389 196.393,252.543 197.178 M177.836 198.431 C 176.899 199.543,176.800 199.987,176.800 203.058 C 176.800 206.386,176.782 206.449,175.900 206.208 C 175.120 205.995,175.094 206.021,175.703 206.403 C 176.893 207.148,177.200 206.478,177.200 203.138 C 177.200 198.263,179.805 195.852,182.469 198.262 C 182.881 198.635,183.200 198.729,183.200 198.476 C 183.200 196.806,179.231 196.772,177.836 198.431 M139.033 198.423 C 140.530 200.417,142.258 202.644,142.600 203.019 C 142.820 203.260,143.450 204.119,144.000 204.926 C 144.550 205.734,145.144 206.396,145.321 206.397 C 145.681 206.400,139.676 198.489,139.020 198.098 C 138.744 197.932,138.748 198.044,139.033 198.423 M258.912 199.800 L 259.000 201.400 255.004 201.516 C 252.807 201.579,250.880 201.759,250.723 201.916 C 250.565 202.072,252.453 202.110,254.918 202.000 L 259.400 201.800 259.526 200.710 C 259.595 200.111,259.465 199.301,259.238 198.910 C 258.911 198.348,258.843 198.533,258.912 199.800 M231.232 200.086 L 231.200 201.572 227.132 201.686 C 224.230 201.767,223.036 201.946,222.962 202.310 C 222.906 202.591,222.952 202.636,223.063 202.410 C 223.181 202.172,224.908 202.000,227.184 202.000 C 231.651 202.000,232.370 201.634,231.669 199.713 C 231.265 198.605,231.263 198.607,231.232 200.086 M159.361 200.937 C 159.382 201.919,159.535 202.640,159.700 202.538 C 160.102 202.290,160.071 200.332,159.655 199.675 C 159.452 199.355,159.337 199.846,159.361 200.937 M246.411 200.171 C 246.185 200.765,246.000 201.332,246.000 201.430 C 246.000 201.601,245.409 202.961,243.389 207.437 C 242.401 209.628,240.786 210.704,239.229 210.209 C 238.315 209.919,238.115 208.982,238.900 208.665 C 239.292 208.507,239.289 208.456,238.887 208.432 C 238.139 208.385,237.831 209.514,238.404 210.205 C 239.176 211.135,240.906 210.910,242.276 209.700 C 243.467 208.649,247.506 199.772,247.016 199.283 C 246.910 199.176,246.637 199.576,246.411 200.171 M207.693 200.800 C 207.693 201.570,207.775 201.885,207.876 201.500 C 207.976 201.115,207.976 200.485,207.876 200.100 C 207.775 199.715,207.693 200.030,207.693 200.800 M197.206 200.782 C 195.746 201.904,196.371 202.033,197.959 200.937 C 198.707 200.422,199.067 200.004,198.759 200.009 C 198.452 200.014,197.753 200.361,197.206 200.782 M198.400 202.000 C 197.960 202.440,197.600 202.980,197.600 203.200 C 197.600 205.294,201.993 205.788,203.294 203.840 C 203.869 202.979,203.589 202.637,203.000 203.479 C 202.329 204.436,200.444 204.995,199.209 204.603 C 198.022 204.226,198.089 202.177,199.300 201.852 C 200.819 201.445,203.013 201.573,203.544 202.100 C 203.948 202.501,203.995 202.461,203.781 201.900 C 203.377 200.840,199.488 200.912,198.400 202.000 M152.014 202.400 C 152.059 204.791,156.222 206.092,158.097 204.300 C 158.615 203.805,158.760 203.604,158.420 203.853 C 156.473 205.275,153.902 204.915,152.772 203.062 C 152.349 202.368,152.008 202.070,152.014 202.400 M215.668 203.194 C 215.186 203.845,215.023 204.289,215.305 204.181 C 215.872 203.963,216.946 202.412,216.699 202.166 C 216.613 202.080,216.149 202.543,215.668 203.194 M221.209 202.887 C 221.196 203.906,223.869 206.408,224.913 206.354 C 225.708 206.312,225.719 206.287,225.017 206.108 C 223.658 205.763,222.503 204.805,221.850 203.481 C 221.475 202.720,221.215 202.479,221.209 202.887 M240.822 202.587 C 240.810 202.799,241.090 203.731,241.443 204.658 C 242.033 206.203,242.034 206.454,241.448 207.672 L 240.808 209.000 241.604 208.056 C 242.042 207.536,242.390 206.816,242.378 206.456 C 242.352 205.712,240.857 201.991,240.822 202.587 M208.025 203.000 C 208.026 205.964,214.991 207.403,216.616 204.775 C 216.969 204.203,216.548 204.321,215.110 205.199 C 212.907 206.542,210.547 205.981,208.854 203.711 C 208.398 203.100,208.025 202.780,208.025 203.000 M250.864 203.212 C 251.305 204.579,253.807 205.418,255.829 204.877 C 258.646 204.123,258.622 205.143,255.800 206.060 C 255.101 206.287,255.126 206.324,256.000 206.351 C 257.675 206.403,259.201 204.988,258.235 204.278 C 257.588 203.802,257.309 203.799,256.435 204.255 C 254.846 205.084,253.389 204.907,251.968 203.712 C 251.241 203.100,250.758 202.881,250.864 203.212 M224.303 204.300 C 225.258 205.213,227.306 205.501,228.309 204.864 C 228.605 204.677,227.995 204.553,226.852 204.571 C 225.669 204.588,224.582 204.361,224.123 204.000 C 223.704 203.670,223.785 203.805,224.303 204.300 M229.386 204.023 C 229.197 204.329,229.240 204.423,229.496 204.264 C 229.727 204.121,230.011 204.251,230.126 204.552 C 230.319 205.055,229.552 205.628,228.000 206.139 C 227.592 206.274,227.655 206.344,228.200 206.360 C 229.690 206.402,231.116 204.955,230.347 204.181 C 229.845 203.674,229.624 203.638,229.386 204.023 M196.400 204.708 C 196.400 205.239,197.888 206.508,198.315 206.341 C 198.514 206.263,198.165 205.781,197.539 205.270 C 196.912 204.758,196.400 204.505,196.400 204.708 M212.500 204.676 C 212.885 204.776,213.515 204.776,213.900 204.676 C 214.285 204.575,213.970 204.493,213.200 204.493 C 212.430 204.493,212.115 204.575,212.500 204.676 M215.579 207.822 C 215.051 208.384,214.888 208.741,215.218 208.614 C 215.739 208.415,217.034 206.800,216.673 206.800 C 216.600 206.800,216.107 207.260,215.579 207.822 M208.950 208.115 C 208.797 208.382,208.814 208.471,208.988 208.314 C 209.163 208.157,209.657 208.216,210.087 208.446 C 210.517 208.677,210.944 208.789,211.036 208.697 C 211.128 208.605,210.759 208.328,210.216 208.080 C 209.466 207.739,209.161 207.747,208.950 208.115 M208.806 209.095 C 208.791 210.295,214.366 211.427,215.026 210.357 C 215.216 210.051,214.926 209.997,214.084 210.182 C 212.725 210.480,209.559 209.766,209.106 209.059 C 208.892 208.724,208.811 208.734,208.806 209.095 M212.100 209.076 C 212.485 209.176,213.115 209.176,213.500 209.076 C 213.885 208.975,213.570 208.893,212.800 208.893 C 212.030 208.893,211.715 208.975,212.100 209.076 M137.300 253.029 C 137.905 253.357,138.400 253.830,138.400 254.079 C 138.400 254.329,138.519 254.414,138.664 254.269 C 139.050 253.883,137.586 252.397,136.838 252.416 C 136.446 252.426,136.625 252.662,137.300 253.029 M262.981 253.458 C 262.082 254.428,262.006 254.805,262.076 257.958 L 262.151 261.400 262.376 258.000 C 262.612 254.418,262.899 253.612,264.200 252.877 C 264.640 252.628,264.766 252.419,264.481 252.412 C 264.195 252.405,263.520 252.876,262.981 253.458 M266.296 252.682 C 268.441 253.095,269.544 263.698,267.757 266.714 L 267.113 267.800 267.957 266.856 C 270.232 264.308,268.826 252.295,266.271 252.454 C 265.404 252.509,265.404 252.510,266.296 252.682 M132.885 254.013 C 131.860 255.655,132.246 265.717,133.381 266.942 L 134.362 268.000 140.481 267.912 L 146.600 267.825 141.000 267.715 C 134.269 267.583,133.867 267.504,133.269 266.191 C 132.671 264.878,132.642 255.443,133.232 254.339 C 133.799 253.281,133.511 253.010,132.885 254.013 M138.972 258.200 L 139.000 261.800 142.200 261.901 C 146.449 262.034,147.074 262.214,147.774 263.505 C 148.172 264.239,148.373 264.379,148.384 263.929 C 148.419 262.474,146.496 261.600,143.246 261.594 C 139.283 261.586,139.264 261.568,139.090 257.788 L 138.944 254.600 138.972 258.200 M254.089 262.223 C 253.600 262.565,253.200 263.013,253.200 263.219 C 253.200 263.424,253.564 263.279,254.010 262.896 C 254.599 262.389,255.823 262.139,258.510 261.977 L 262.200 261.753 258.589 261.677 C 255.872 261.619,254.758 261.754,254.089 262.223 M147.516 266.313 L 146.832 267.800 147.616 266.856 C 148.047 266.336,148.400 265.661,148.400 265.356 C 148.400 264.533,148.270 264.673,147.516 266.313 M257.700 267.897 C 259.405 267.972,262.195 267.972,263.900 267.897 C 265.605 267.822,264.210 267.761,260.800 267.761 C 257.390 267.761,255.995 267.822,257.700 267.897 " stroke="none" fill="#dbdbdb" fill-rule="evenodd"></path><path id="path3" d="M134.220 131.724 C 132.148 132.988,132.027 133.429,132.013 139.804 C 131.997 147.060,132.449 148.000,135.954 148.000 C 138.826 148.000,140.000 146.196,140.000 141.781 L 140.000 139.200 142.911 139.200 C 145.754 139.200,146.750 138.857,148.300 137.345 C 149.673 136.005,148.663 132.765,146.526 131.654 C 145.331 131.033,135.258 131.090,134.220 131.724 M254.324 131.925 C 249.796 134.669,252.638 139.255,258.789 139.131 L 262.200 139.062 258.779 138.831 C 253.897 138.501,252.866 137.692,253.165 134.423 C 253.409 131.756,265.412 130.576,267.818 132.982 C 268.358 133.522,268.800 133.801,268.800 133.602 C 268.800 131.387,257.393 130.066,254.324 131.925 M147.418 132.982 C 150.223 135.786,148.025 138.534,142.814 138.738 L 139.292 138.876 139.128 142.634 C 138.940 146.931,138.519 147.565,135.847 147.587 C 132.955 147.611,132.401 146.405,132.400 140.080 C 132.400 131.925,132.202 132.116,140.718 132.046 C 146.285 132.001,146.462 132.026,147.418 132.982 M262.000 145.941 C 262.000 146.189,262.310 146.753,262.689 147.195 C 264.139 148.889,268.800 147.933,268.800 145.941 C 268.800 145.694,268.427 145.966,267.971 146.546 C 266.781 148.059,264.019 148.059,262.829 146.546 C 262.373 145.966,262.000 145.694,262.000 145.941 M169.328 191.280 C 168.458 192.401,168.449 192.720,169.268 193.447 C 170.107 194.192,170.112 194.191,169.660 193.329 C 169.079 192.221,169.461 191.200,170.455 191.200 C 171.455 191.200,171.860 192.292,171.233 193.297 C 170.832 193.938,170.839 194.054,171.269 193.910 C 171.572 193.809,171.800 193.146,171.800 192.367 C 171.800 190.879,170.188 190.171,169.328 191.280 M134.800 191.945 C 134.800 192.134,135.243 192.204,135.785 192.101 C 136.904 191.887,137.172 192.114,139.575 195.311 C 140.530 196.581,141.422 197.502,141.556 197.356 C 141.690 197.210,141.575 197.010,141.300 196.912 C 141.025 196.814,140.800 196.554,140.800 196.334 C 140.800 195.925,138.120 192.435,137.400 191.906 C 136.841 191.496,134.800 191.526,134.800 191.945 M145.015 192.074 C 144.702 192.989,144.587 202.001,144.888 202.001 C 145.046 202.000,145.226 199.795,145.288 197.100 L 145.400 192.200 146.400 192.200 L 147.400 192.200 147.509 199.043 C 147.625 206.301,147.462 207.003,145.765 206.559 C 145.329 206.445,144.438 205.556,143.786 204.585 C 143.134 203.613,142.465 202.814,142.300 202.809 C 141.854 202.796,141.936 203.191,142.500 203.773 C 142.775 204.057,143.515 204.944,144.144 205.744 C 144.986 206.815,145.593 207.200,146.437 207.200 C 147.977 207.200,148.051 206.768,147.914 198.600 L 147.800 191.800 146.497 191.674 C 145.685 191.596,145.127 191.747,145.015 192.074 M262.267 192.667 C 262.120 192.813,262.000 193.422,262.000 194.020 C 262.000 194.784,261.753 195.171,261.168 195.324 C 260.267 195.560,260.191 197.203,261.069 197.492 C 261.369 197.590,261.458 197.343,261.317 196.805 C 261.184 196.297,261.345 195.772,261.720 195.482 C 262.063 195.217,262.401 194.550,262.472 194.000 C 262.675 192.415,264.400 192.352,264.400 193.929 C 264.400 195.175,264.962 195.600,266.609 195.600 C 267.780 195.600,268.225 196.247,267.585 197.018 C 267.195 197.488,267.230 197.600,267.764 197.600 C 268.127 197.600,268.530 197.328,268.657 196.995 C 269.022 196.045,268.030 195.200,266.551 195.200 C 265.328 195.200,265.200 195.091,265.200 194.043 C 265.200 192.661,263.207 191.726,262.267 192.667 M152.800 195.505 C 152.800 195.673,152.407 195.988,151.926 196.205 C 151.445 196.422,150.971 196.853,150.872 197.161 C 150.769 197.484,151.268 197.287,152.046 196.698 C 152.791 196.134,153.850 195.591,154.400 195.491 C 155.241 195.338,155.194 195.300,154.100 195.254 C 153.385 195.225,152.800 195.337,152.800 195.505 M157.200 195.485 C 157.750 195.582,158.875 196.196,159.700 196.849 C 161.526 198.296,161.695 197.914,159.928 196.336 C 159.062 195.562,158.264 195.217,157.428 195.254 C 156.346 195.302,156.319 195.330,157.200 195.485 M171.100 195.465 C 171.928 195.799,171.800 206.238,170.964 206.559 C 170.614 206.693,170.164 206.701,169.964 206.578 C 169.764 206.454,169.600 206.555,169.600 206.803 C 169.600 207.058,170.077 207.198,170.700 207.127 L 171.800 207.000 171.911 201.100 C 172.013 195.662,171.966 195.202,171.311 195.232 C 170.892 195.250,170.805 195.346,171.100 195.465 M174.889 201.100 L 175.000 207.000 176.100 207.127 C 176.723 207.198,177.200 207.058,177.200 206.803 C 177.200 206.555,177.036 206.454,176.836 206.578 C 176.636 206.701,176.186 206.693,175.836 206.559 C 175.000 206.238,174.872 195.799,175.700 195.465 C 175.995 195.346,175.908 195.250,175.489 195.232 C 174.834 195.202,174.787 195.662,174.889 201.100 M177.762 196.084 L 177.000 196.969 178.017 196.330 C 178.576 195.978,179.386 195.601,179.817 195.492 C 180.431 195.336,180.376 195.283,179.562 195.246 C 178.944 195.219,178.216 195.558,177.762 196.084 M182.400 195.489 C 182.730 195.613,183.505 196.068,184.121 196.500 C 185.140 197.213,185.306 197.228,185.930 196.664 C 186.307 196.322,187.063 195.864,187.608 195.646 L 188.600 195.251 187.500 195.225 C 186.895 195.211,186.400 195.368,186.400 195.573 C 186.400 196.302,184.757 196.485,184.040 195.836 C 183.653 195.486,182.991 195.214,182.569 195.232 C 181.998 195.255,181.954 195.321,182.400 195.489 M190.650 195.476 C 193.035 195.944,195.167 205.184,193.174 206.416 C 191.953 207.171,191.600 206.361,191.600 202.802 C 191.600 199.895,191.464 199.126,190.813 198.344 C 190.381 197.825,190.021 197.625,190.013 197.900 C 190.006 198.175,190.180 198.400,190.400 198.400 C 190.640 198.400,190.800 199.984,190.800 202.351 C 190.800 206.620,191.130 207.379,192.878 207.131 C 194.404 206.914,194.495 198.525,192.993 196.555 C 192.234 195.560,191.672 195.214,190.880 195.254 C 190.013 195.298,189.968 195.342,190.650 195.476 M198.000 195.600 C 198.000 195.820,197.766 196.000,197.480 196.000 C 196.395 196.000,196.020 196.859,196.672 197.854 C 197.386 198.943,198.089 199.057,198.800 198.200 C 199.372 197.511,198.784 197.376,198.117 198.043 C 197.793 198.367,197.559 198.270,197.245 197.684 C 196.739 196.739,197.868 195.785,199.836 195.493 C 200.851 195.342,200.809 195.312,199.500 195.260 C 198.675 195.227,198.000 195.380,198.000 195.600 M202.669 195.478 C 203.147 195.571,204.002 196.111,204.569 196.678 C 205.136 197.245,205.600 197.536,205.600 197.324 C 205.600 196.569,203.732 195.201,202.774 195.254 C 201.878 195.305,201.869 195.322,202.669 195.478 M208.878 196.519 C 208.175 197.245,207.600 198.147,207.600 198.524 C 207.600 198.902,207.377 199.568,207.104 200.005 C 206.709 200.638,206.709 200.962,207.104 201.595 C 207.377 202.032,207.606 202.707,207.613 203.095 C 207.630 203.956,208.945 205.600,209.619 205.600 C 209.888 205.600,209.654 205.144,209.097 204.588 C 206.394 201.885,207.944 196.026,211.505 195.486 C 212.582 195.323,212.580 195.319,211.378 195.260 C 210.475 195.216,209.824 195.544,208.878 196.519 M214.071 195.484 C 214.660 195.574,215.357 195.907,215.620 196.224 C 216.280 197.019,216.669 196.945,216.922 195.977 C 217.092 195.326,217.026 195.247,216.604 195.597 C 216.236 195.902,215.991 195.909,215.812 195.619 C 215.669 195.389,214.978 195.227,214.276 195.260 C 213.109 195.315,213.092 195.334,214.071 195.484 M218.100 195.452 C 219.297 195.805,219.132 206.192,217.900 208.010 C 216.196 210.523,213.120 211.402,210.200 210.209 C 209.595 209.962,209.506 209.998,209.835 210.356 C 211.311 211.964,215.447 211.301,217.594 209.111 L 219.220 207.452 219.110 201.431 C 219.006 195.745,218.955 195.406,218.200 195.328 C 217.578 195.264,217.556 195.292,218.100 195.452 M222.472 196.336 C 221.772 196.960,221.200 197.686,221.200 197.949 C 221.200 198.212,221.823 197.803,222.585 197.041 C 223.347 196.279,224.472 195.580,225.085 195.488 L 226.200 195.320 224.972 195.260 C 224.131 195.219,223.343 195.558,222.472 196.336 M228.222 195.627 C 230.513 196.293,232.707 200.066,231.587 201.415 C 231.196 201.887,231.227 202.000,231.751 202.000 C 232.488 202.000,232.701 199.433,232.000 199.000 C 231.780 198.864,231.600 198.433,231.600 198.043 C 231.600 196.969,229.388 195.194,228.103 195.236 L 227.000 195.272 228.222 195.627 M237.612 195.584 C 237.288 195.789,237.144 196.078,237.293 196.226 C 237.441 196.374,237.853 196.204,238.210 195.848 C 238.913 195.144,238.557 194.987,237.612 195.584 M247.900 195.465 C 248.540 195.723,248.530 196.182,247.849 197.740 C 246.450 200.942,245.672 203.200,245.968 203.200 C 246.146 203.200,246.600 202.345,246.977 201.300 C 247.775 199.088,248.346 197.687,248.860 196.684 C 249.311 195.805,248.979 195.189,248.076 195.232 C 247.660 195.251,247.592 195.341,247.900 195.465 M251.200 195.573 C 251.200 195.778,250.872 196.050,250.472 196.177 C 247.471 197.130,247.807 204.369,250.939 206.218 C 252.831 207.336,258.000 207.112,258.000 205.912 C 258.000 205.553,257.885 205.555,257.520 205.920 C 256.784 206.656,252.170 206.530,250.965 205.741 C 247.297 203.337,248.330 196.954,252.600 195.641 L 253.800 195.272 252.500 195.236 C 251.785 195.216,251.200 195.368,251.200 195.573 M255.800 195.493 C 258.055 196.058,260.033 199.100,259.492 201.171 C 259.372 201.627,259.438 202.000,259.637 202.000 C 260.964 202.000,259.367 196.646,257.900 196.172 C 257.515 196.048,257.200 195.778,257.200 195.573 C 257.200 195.368,256.705 195.221,256.100 195.246 C 255.256 195.282,255.186 195.339,255.800 195.493 M169.355 201.000 C 169.356 203.860,169.420 204.978,169.497 203.483 C 169.574 201.989,169.574 199.649,169.496 198.283 C 169.418 196.918,169.355 198.140,169.355 201.000 M137.455 197.000 C 137.582 197.330,137.846 197.600,138.043 197.600 C 138.239 197.600,138.400 197.870,138.400 198.200 C 138.400 198.530,138.580 198.800,138.800 198.800 C 139.020 198.800,139.200 199.042,139.200 199.338 C 139.200 199.634,139.529 200.174,139.931 200.538 C 141.384 201.853,141.157 201.153,139.368 198.800 C 137.517 196.366,137.040 195.917,137.455 197.000 M238.006 197.500 C 238.003 197.995,238.180 198.400,238.400 198.400 C 238.901 198.400,238.901 197.976,238.400 197.200 C 238.086 196.715,238.011 196.772,238.006 197.500 M153.319 198.090 C 152.431 199.238,152.343 199.738,153.181 198.874 C 153.676 198.364,153.998 197.865,153.897 197.764 C 153.796 197.663,153.536 197.810,153.319 198.090 M157.900 198.377 C 158.988 199.285,159.179 202.478,158.204 203.454 C 157.232 204.425,154.382 204.266,153.513 203.192 C 153.110 202.694,152.690 202.377,152.580 202.487 C 152.470 202.597,152.729 203.117,153.155 203.643 C 154.234 204.977,157.176 205.002,158.489 203.689 C 160.085 202.092,159.301 197.557,157.438 197.613 C 157.197 197.621,157.405 197.964,157.900 198.377 M186.629 198.229 C 186.205 198.538,185.936 198.869,186.030 198.963 C 186.124 199.057,186.548 198.881,186.971 198.571 C 187.395 198.262,187.664 197.931,187.570 197.837 C 187.476 197.743,187.052 197.919,186.629 198.229 M210.600 198.400 C 210.199 198.843,209.962 199.295,210.072 199.405 C 210.182 199.515,210.599 199.243,211.000 198.800 C 211.401 198.357,211.638 197.905,211.528 197.795 C 211.418 197.685,211.001 197.957,210.600 198.400 M214.814 197.900 C 214.806 198.175,214.936 198.400,215.102 198.400 C 215.269 198.400,215.651 198.956,215.951 199.635 C 217.260 202.592,213.591 205.342,211.249 203.160 C 210.753 202.698,210.244 202.423,210.117 202.550 C 209.606 203.061,211.867 204.374,213.280 204.387 C 214.969 204.402,216.802 202.514,216.798 200.762 C 216.796 199.792,214.841 196.971,214.814 197.900 M223.862 198.331 C 222.622 199.702,223.036 200.000,226.176 200.000 C 227.813 200.000,229.237 199.865,229.340 199.700 C 229.442 199.535,228.148 199.460,226.463 199.534 L 223.400 199.668 224.370 198.634 C 224.903 198.065,225.156 197.600,224.932 197.600 C 224.707 197.600,224.226 197.929,223.862 198.331 M251.518 198.564 C 251.143 199.080,250.948 199.615,251.085 199.751 C 251.388 200.054,257.600 200.087,257.600 199.786 C 257.600 199.295,256.276 197.600,255.892 197.600 C 255.663 197.600,255.774 197.929,256.138 198.331 C 257.181 199.484,256.980 199.600,253.939 199.600 C 251.105 199.600,251.086 199.593,251.939 198.853 C 252.814 198.094,253.042 197.590,252.500 197.613 C 252.335 197.619,251.893 198.048,251.518 198.564 M262.083 201.200 C 262.019 205.414,262.305 206.130,264.333 206.837 C 266.181 207.481,268.559 206.641,268.241 205.457 C 268.114 204.986,268.008 204.465,268.005 204.300 C 268.002 204.135,267.370 204.000,266.600 204.000 L 265.200 204.000 265.200 200.800 C 265.200 198.933,265.033 197.600,264.800 197.600 C 264.367 197.600,264.237 202.710,264.643 203.767 C 264.798 204.172,265.374 204.400,266.243 204.400 C 267.994 204.400,268.296 206.174,266.600 206.498 C 263.542 207.082,262.688 205.972,262.370 201.000 L 262.140 197.400 262.083 201.200 M142.848 199.600 C 143.555 200.480,144.212 201.122,144.307 201.026 C 144.556 200.777,142.378 198.000,141.934 198.000 C 141.729 198.000,142.141 198.720,142.848 199.600 M182.285 198.422 C 182.569 198.787,182.817 200.691,182.885 203.022 C 182.995 206.831,183.039 207.006,183.922 207.131 C 185.623 207.372,186.001 206.591,185.994 202.851 C 185.990 200.475,185.867 199.587,185.600 200.000 C 185.387 200.330,185.209 201.894,185.206 203.476 C 185.200 206.428,184.805 207.234,183.782 206.385 C 183.354 206.030,183.200 204.978,183.200 202.400 C 183.200 199.541,183.072 198.797,182.500 198.349 C 181.884 197.866,181.858 197.875,182.285 198.422 M161.400 200.962 C 161.400 202.151,161.535 203.040,161.700 202.938 C 161.865 202.836,162.000 201.863,162.000 200.776 C 162.000 199.689,161.865 198.800,161.700 198.800 C 161.535 198.800,161.400 199.773,161.400 200.962 M203.200 199.133 C 203.200 199.441,202.283 199.605,200.500 199.613 C 197.717 199.627,196.000 200.417,196.000 201.684 C 196.000 201.990,195.811 202.429,195.581 202.659 C 193.756 204.484,198.343 207.610,201.702 206.832 C 202.577 206.629,203.297 206.633,203.426 206.842 C 203.737 207.346,205.600 207.290,205.600 206.776 C 205.600 206.543,205.412 206.469,205.182 206.611 C 204.953 206.753,204.347 206.595,203.836 206.261 C 203.188 205.836,202.781 205.779,202.488 206.072 C 201.661 206.899,198.055 206.633,197.097 205.675 C 194.555 203.133,196.519 200.024,200.676 200.009 C 202.918 200.001,204.073 199.540,203.440 198.907 C 203.308 198.775,203.200 198.877,203.200 199.133 M220.557 199.827 C 220.416 200.392,220.471 201.427,220.679 202.127 C 221.024 203.283,221.060 203.188,221.072 201.100 C 221.087 198.585,220.953 198.252,220.557 199.827 M238.821 199.276 C 238.809 199.648,238.980 200.064,239.200 200.200 C 239.420 200.336,239.600 200.692,239.600 200.990 C 239.600 201.737,241.176 205.357,241.403 205.130 C 241.631 204.902,240.877 202.783,239.721 200.407 C 239.238 199.413,238.833 198.904,238.821 199.276 M244.448 199.648 C 244.237 200.172,243.959 200.933,243.830 201.341 C 243.611 202.029,243.536 202.015,242.763 201.141 C 242.037 200.318,241.968 200.301,242.212 201.000 C 242.365 201.440,242.581 202.115,242.692 202.500 C 242.803 202.885,243.028 203.200,243.193 203.200 C 243.565 203.200,245.280 199.147,245.019 198.886 C 244.915 198.782,244.658 199.125,244.448 199.648 M201.193 201.885 C 202.180 201.978,203.139 202.268,203.324 202.528 C 203.557 202.854,203.611 202.815,203.499 202.400 C 203.385 201.978,202.754 201.787,201.369 201.757 L 199.400 201.714 201.193 201.885 M198.460 203.073 C 198.391 204.536,199.262 205.026,201.181 204.604 C 202.327 204.353,203.723 203.200,202.882 203.200 C 202.654 203.200,202.407 203.363,202.333 203.562 C 202.204 203.913,200.909 204.135,199.527 204.044 C 199.115 204.017,198.788 203.573,198.687 202.900 C 198.528 201.855,198.517 201.864,198.460 203.073 M223.232 202.438 C 223.144 204.215,227.679 205.428,229.320 204.066 C 229.772 203.691,230.007 203.726,230.427 204.233 C 232.485 206.712,225.007 207.381,222.562 204.936 C 221.813 204.186,221.200 203.777,221.200 204.026 C 221.200 206.825,228.309 208.007,230.859 205.631 C 232.128 204.449,230.576 202.756,228.997 203.601 C 226.880 204.734,224.182 204.142,223.496 202.393 C 223.300 201.895,223.258 201.902,223.232 202.438 M250.814 202.264 C 250.761 203.985,254.449 205.291,256.435 204.255 C 257.643 203.624,259.120 204.325,258.581 205.273 C 258.354 205.675,258.400 205.691,258.778 205.343 C 259.155 204.996,259.165 204.683,258.823 204.043 C 258.350 203.159,256.970 202.890,256.722 203.633 C 256.387 204.640,252.731 204.125,251.756 202.933 C 251.246 202.310,250.822 202.009,250.814 202.264 M150.001 203.281 C 149.994 206.610,156.918 208.233,159.926 205.607 C 161.749 204.016,161.503 203.719,159.618 205.234 C 156.797 207.500,152.581 206.827,150.745 203.817 C 150.255 203.014,150.002 202.831,150.001 203.281 M216.404 204.900 C 216.252 205.337,216.107 205.945,216.050 206.384 C 215.824 208.118,213.014 208.844,210.801 207.740 C 209.857 207.269,209.296 207.196,208.839 207.484 C 208.082 207.962,207.984 209.661,208.700 209.900 C 209.018 210.006,209.112 209.836,208.957 209.433 C 208.433 208.067,209.066 207.510,210.373 208.186 C 213.226 209.661,217.157 208.016,216.688 205.543 C 216.589 205.024,216.462 204.735,216.404 204.900 M210.400 205.877 C 210.400 206.918,214.382 207.186,215.200 206.200 C 215.514 205.822,215.541 205.600,215.273 205.600 C 215.039 205.600,214.736 205.780,214.600 206.000 C 214.254 206.560,211.460 206.500,210.880 205.920 C 210.559 205.599,210.400 205.585,210.400 205.877 M134.903 206.400 C 135.107 207.146,136.868 207.195,137.113 206.461 C 137.259 206.024,137.124 206.013,136.395 206.402 C 135.678 206.786,135.422 206.774,135.119 206.341 C 134.812 205.904,134.771 205.916,134.903 206.400 M243.894 207.482 C 242.813 210.183,239.677 211.739,238.404 210.205 C 237.597 209.233,238.199 208.380,239.507 208.641 C 240.231 208.786,240.813 208.667,241.106 208.313 C 241.800 207.477,238.698 207.645,237.854 208.488 C 236.030 210.313,239.708 212.108,242.011 210.516 C 243.474 209.505,244.000 208.921,244.000 208.309 C 244.000 208.007,244.200 207.560,244.445 207.315 C 244.690 207.070,244.813 206.640,244.719 206.358 C 244.625 206.076,244.254 206.582,243.894 207.482 M133.016 253.096 C 132.020 254.170,132.000 254.312,132.013 260.196 C 132.032 268.519,132.307 268.800,140.421 268.800 C 145.708 268.800,146.739 268.580,148.100 267.162 C 148.924 266.305,149.053 263.390,148.300 262.655 C 146.750 261.143,145.754 260.800,142.911 260.800 L 140.000 260.800 140.000 258.219 C 140.000 252.581,136.128 249.740,133.016 253.096 M262.861 252.747 C 262.388 253.158,262.000 253.724,262.000 254.005 C 262.000 254.287,262.441 254.041,262.981 253.458 C 264.362 251.969,266.801 251.966,267.971 253.454 C 268.427 254.034,268.800 254.306,268.800 254.059 C 268.800 252.118,264.644 251.201,262.861 252.747 M138.238 253.242 C 138.833 253.899,139.031 254.840,139.144 257.542 C 139.313 261.612,139.286 261.586,143.246 261.594 C 148.062 261.604,150.136 264.300,147.418 267.018 C 145.839 268.598,134.860 268.538,133.381 266.942 C 131.932 265.379,131.876 255.253,133.305 253.508 C 134.468 252.089,137.067 251.949,138.238 253.242 M254.807 261.096 C 251.865 262.251,251.650 266.496,254.453 268.105 C 255.843 268.902,266.800 269.164,266.800 268.400 C 266.800 268.180,267.005 268.000,267.256 268.000 C 267.507 268.000,267.951 267.685,268.243 267.300 C 269.123 266.140,268.866 265.970,267.818 267.018 C 266.864 267.973,266.671 268.000,260.879 268.000 C 253.822 268.000,252.981 267.645,253.058 264.696 C 253.125 262.151,254.083 261.600,258.444 261.600 C 260.548 261.600,262.000 261.437,262.000 261.200 C 262.000 260.775,255.850 260.686,254.807 261.096 " stroke="none" fill="#e7e7e7" fill-rule="evenodd"></path><path id="path4" d="M0.000 200.000 L 0.000 400.000 200.000 400.000 L 400.000 400.000 400.000 200.000 L 400.000 0.000 200.000 0.000 L 0.000 0.000 0.000 200.000 M146.526 131.654 C 148.663 132.765,149.673 136.005,148.300 137.345 C 146.750 138.857,145.754 139.200,142.911 139.200 L 140.000 139.200 140.000 141.781 C 140.000 146.196,138.826 148.000,135.954 148.000 C 132.449 148.000,131.997 147.060,132.013 139.804 C 132.027 133.429,132.148 132.988,134.220 131.724 C 135.258 131.090,145.331 131.033,146.526 131.654 M267.462 132.220 L 268.800 133.241 268.800 139.816 C 268.800 147.650,268.655 148.000,265.400 148.000 C 262.444 148.000,262.000 147.320,262.000 142.795 L 262.000 139.200 258.689 139.200 C 253.521 139.200,251.239 136.985,252.824 133.508 C 253.986 130.957,264.584 130.025,267.462 132.220 M171.800 192.400 C 171.800 194.077,170.256 194.587,169.087 193.296 C 168.131 192.240,169.184 190.697,170.739 190.877 C 171.662 190.984,171.800 191.183,171.800 192.400 M137.400 191.906 C 138.151 192.458,140.800 195.934,140.800 196.367 C 140.800 196.605,140.980 196.800,141.200 196.800 C 141.420 196.800,141.600 197.070,141.600 197.400 C 141.600 197.730,141.764 198.000,141.965 198.000 C 142.166 198.000,142.880 198.747,143.552 199.661 L 144.774 201.322 144.887 196.561 L 145.000 191.800 146.400 191.800 L 147.800 191.800 147.914 198.600 C 148.051 206.768,147.977 207.200,146.437 207.200 C 145.593 207.200,144.986 206.815,144.144 205.744 C 143.515 204.944,142.775 204.057,142.500 203.773 C 142.225 203.489,142.000 203.064,142.000 202.829 C 142.000 202.593,141.820 202.400,141.600 202.400 C 141.380 202.400,141.200 202.201,141.200 201.958 C 141.200 201.714,140.750 201.161,140.200 200.729 C 139.650 200.296,139.200 199.685,139.200 199.371 C 139.200 199.057,139.020 198.800,138.800 198.800 C 138.580 198.800,138.400 198.607,138.400 198.371 C 138.400 198.136,138.135 197.678,137.812 197.355 C 137.295 196.838,137.211 197.382,137.112 201.884 L 137.000 207.000 136.000 207.000 L 135.000 207.000 134.891 199.300 L 134.783 191.600 135.891 191.606 C 136.501 191.609,137.180 191.744,137.400 191.906 M264.567 192.643 C 264.942 192.787,265.200 193.357,265.200 194.043 C 265.200 195.091,265.328 195.200,266.551 195.200 C 268.030 195.200,269.022 196.045,268.657 196.995 C 268.503 197.397,267.883 197.600,266.813 197.600 L 265.200 197.600 265.200 200.800 L 265.200 204.000 266.600 204.000 C 267.370 204.000,268.002 204.135,268.005 204.300 C 268.008 204.465,268.114 204.986,268.241 205.457 C 268.559 206.641,266.181 207.481,264.333 206.837 C 262.346 206.144,262.027 205.389,262.013 201.347 C 262.001 198.035,261.925 197.674,261.200 197.484 C 260.708 197.355,260.400 196.938,260.400 196.400 C 260.400 195.862,260.708 195.445,261.200 195.316 C 261.752 195.171,262.000 194.770,262.000 194.020 C 262.000 192.434,262.844 191.981,264.567 192.643 M159.928 196.336 C 160.628 196.960,161.200 197.770,161.200 198.136 C 161.200 198.501,161.380 198.800,161.600 198.800 C 161.820 198.800,162.000 199.689,162.000 200.776 C 162.000 201.863,161.820 202.864,161.600 203.000 C 161.380 203.136,161.200 203.528,161.200 203.871 C 161.200 207.050,154.248 208.087,151.410 205.331 C 150.019 203.980,149.157 198.000,150.353 198.000 C 150.548 198.000,150.804 197.627,150.924 197.170 C 151.043 196.714,151.514 196.243,151.970 196.124 C 152.427 196.004,152.800 195.748,152.800 195.553 C 152.800 194.550,158.647 195.192,159.928 196.336 M171.911 201.100 L 171.800 207.000 170.752 207.122 C 169.381 207.281,169.212 206.605,169.205 200.933 C 169.199 195.614,169.318 195.200,170.853 195.200 L 172.021 195.200 171.911 201.100 M177.200 195.862 C 177.200 196.478,177.251 196.478,177.931 195.862 C 178.924 194.964,183.056 194.946,184.040 195.836 C 184.757 196.485,186.400 196.302,186.400 195.573 C 186.400 194.377,191.964 195.206,192.993 196.555 C 194.495 198.525,194.404 206.914,192.878 207.131 C 191.146 207.376,190.800 206.610,190.800 202.522 C 190.800 197.596,189.548 196.260,187.003 198.472 C 186.076 199.278,186.000 199.608,186.000 202.823 C 186.000 206.592,185.624 207.372,183.922 207.131 C 183.042 207.006,182.995 206.828,182.897 203.200 C 182.776 198.733,182.338 197.600,180.732 197.600 C 178.430 197.600,177.200 199.836,177.200 204.021 L 177.200 207.253 176.100 207.127 L 175.000 207.000 174.889 201.100 L 174.779 195.200 175.989 195.200 C 176.849 195.200,177.200 195.392,177.200 195.862 M204.674 196.070 C 205.549 196.891,205.600 197.224,205.600 202.070 L 205.600 207.200 204.624 207.200 C 204.087 207.200,203.548 207.039,203.426 206.842 C 203.297 206.633,202.577 206.629,201.702 206.832 C 198.343 207.610,193.756 204.484,195.581 202.659 C 195.811 202.429,196.000 201.990,196.000 201.684 C 196.000 200.417,197.717 199.627,200.500 199.613 C 203.250 199.600,203.731 199.274,202.629 198.171 C 201.877 197.420,199.432 197.438,198.800 198.200 C 198.089 199.057,197.386 198.943,196.672 197.854 C 196.020 196.859,196.395 196.000,197.480 196.000 C 197.766 196.000,198.000 195.820,198.000 195.600 C 198.000 194.734,203.677 195.133,204.674 196.070 M215.812 195.619 C 215.990 195.908,216.240 195.899,216.614 195.589 C 218.543 193.988,218.993 195.038,219.110 201.406 L 219.220 207.412 217.797 208.921 C 214.975 211.913,207.621 211.760,208.075 208.719 C 208.279 207.351,209.291 206.987,210.801 207.740 C 213.130 208.903,214.896 208.477,215.949 206.500 C 216.488 205.488,215.965 205.279,215.200 206.200 C 214.898 206.563,214.023 206.800,212.980 206.800 C 211.982 206.800,211.005 206.548,210.657 206.200 C 210.327 205.870,209.848 205.600,209.593 205.600 C 208.940 205.600,207.629 203.941,207.613 203.095 C 207.606 202.707,207.377 202.032,207.104 201.595 C 206.709 200.962,206.709 200.638,207.104 200.005 C 207.377 199.568,207.600 198.902,207.600 198.524 C 207.600 196.151,214.608 193.672,215.812 195.619 M230.403 196.266 C 231.062 196.852,231.600 197.652,231.600 198.043 C 231.600 198.433,231.780 198.864,232.000 199.000 C 232.220 199.136,232.400 199.867,232.400 200.624 L 232.400 202.000 228.000 202.000 C 223.504 202.000,222.957 202.214,224.223 203.480 C 225.027 204.284,227.601 204.349,228.997 203.601 C 230.576 202.756,232.128 204.449,230.859 205.631 C 226.385 209.799,218.950 204.948,220.821 199.080 C 222.056 195.205,227.438 193.624,230.403 196.266 M240.700 196.283 C 240.975 196.875,241.200 197.684,241.200 198.080 C 241.200 198.476,241.380 198.800,241.600 198.800 C 241.820 198.800,242.000 199.087,242.000 199.437 C 242.000 200.608,243.546 202.235,243.815 201.347 C 243.939 200.936,244.302 200.090,244.620 199.468 C 244.939 198.845,245.200 198.080,245.200 197.768 C 245.200 197.455,245.380 197.200,245.600 197.200 C 245.820 197.200,246.000 196.750,246.000 196.200 C 246.000 195.327,246.175 195.200,247.376 195.200 C 248.943 195.200,249.391 195.648,248.860 196.684 C 248.346 197.687,247.775 199.088,246.977 201.300 C 246.600 202.345,246.136 203.200,245.946 203.200 C 245.756 203.200,245.600 203.562,245.600 204.005 C 245.600 204.448,245.420 205.168,245.200 205.605 C 244.980 206.042,244.620 206.758,244.400 207.195 C 244.180 207.632,244.000 208.184,244.000 208.423 C 244.000 210.392,239.689 211.865,238.061 210.453 C 236.904 209.449,237.938 207.020,239.192 207.795 C 241.307 209.102,242.107 206.846,240.609 203.800 C 240.068 202.700,239.619 201.496,239.613 201.124 C 239.606 200.752,239.420 200.336,239.200 200.200 C 238.980 200.064,238.800 199.603,238.800 199.176 C 238.800 198.749,238.620 198.400,238.400 198.400 C 238.180 198.400,238.000 197.965,238.000 197.433 C 238.000 196.902,237.775 196.375,237.500 196.264 C 236.755 195.962,237.962 195.213,239.200 195.209 C 239.897 195.207,240.352 195.533,240.700 196.283 M257.200 195.573 C 257.200 195.778,257.515 196.048,257.900 196.172 C 258.940 196.508,260.000 198.652,260.000 200.419 L 260.000 201.974 255.622 202.087 L 251.244 202.200 251.949 203.133 C 252.710 204.142,256.423 204.531,256.722 203.633 C 256.971 202.887,258.351 203.161,258.828 204.051 C 260.191 206.600,253.182 208.128,250.382 205.894 C 247.723 203.771,247.785 197.030,250.472 196.177 C 250.872 196.050,251.200 195.778,251.200 195.573 C 251.200 195.368,252.550 195.200,254.200 195.200 C 255.850 195.200,257.200 195.368,257.200 195.573 M153.305 198.708 C 151.372 201.068,152.880 204.115,155.959 204.073 C 158.120 204.043,158.800 203.306,158.800 200.993 C 158.800 197.737,155.294 196.279,153.305 198.708 M210.900 198.785 C 209.668 200.348,209.740 201.883,211.100 203.053 C 214.509 205.985,218.047 201.407,214.929 198.100 C 214.052 197.170,211.883 197.540,210.900 198.785 M224.400 198.600 L 223.461 199.600 226.330 199.600 C 229.322 199.600,229.691 199.369,228.469 198.262 C 227.374 197.272,225.502 197.427,224.400 198.600 M252.086 198.624 L 251.172 199.600 253.986 199.600 C 256.923 199.600,257.288 199.366,256.069 198.262 C 255.011 197.305,253.165 197.473,252.086 198.624 M198.800 203.000 C 198.800 204.024,199.158 204.176,201.166 204.007 C 202.193 203.920,203.200 203.139,203.200 202.429 C 203.200 202.176,202.298 202.000,201.000 202.000 C 198.920 202.000,198.800 202.055,198.800 203.000 M138.461 252.700 C 139.546 254.000,140.000 255.626,140.000 258.219 L 140.000 260.800 142.911 260.800 C 145.754 260.800,146.750 261.143,148.300 262.655 C 149.053 263.390,148.924 266.305,148.100 267.162 C 146.739 268.580,145.708 268.800,140.421 268.800 C 132.307 268.800,132.032 268.519,132.013 260.196 C 132.000 254.312,132.020 254.170,133.016 253.096 C 134.269 251.745,137.468 251.512,138.461 252.700 M268.111 252.805 C 269.678 254.634,268.926 268.000,267.256 268.000 C 267.005 268.000,266.800 268.180,266.800 268.400 C 266.800 269.164,255.843 268.902,254.453 268.105 C 252.554 267.015,251.887 264.906,252.863 263.082 C 253.854 261.231,254.405 261.005,258.271 260.861 L 262.000 260.723 262.000 257.108 C 262.000 253.906,262.098 253.409,262.861 252.747 C 264.083 251.687,267.184 251.721,268.111 252.805 " stroke="none" fill="#ededed" fill-rule="evenodd"></path></g></svg>